<svg width="20" height="20" viewBox="0 0 20 20" fill="none" xmlns="http://www.w3.org/2000/svg">
<path fill-rule="evenodd" clip-rule="evenodd" d="M8.67544 0.000178151C9.20932 0.00104383 9.8006 0.00497892 10.4581 0.01116C10.9765 0.0160336 11.4377 0.0211937 11.8502 0.0276072C12.2627 0.0340207 12.6265 0.041697 12.9501 0.0516458C13.2738 0.0615943 13.5573 0.0738181 13.8092 0.0892975C14.0612 0.104777 14.2815 0.123529 14.4789 0.146534C14.6762 0.16954 14.8506 0.1968 15.0105 0.229328C15.1703 0.261855 15.3157 0.299605 15.4553 0.34365C15.5948 0.387695 15.7284 0.438015 15.8647 0.495573C16.0009 0.553131 16.1399 0.617952 16.29 0.691018C16.3813 0.735456 16.4705 0.782005 16.5575 0.830694C16.6445 0.879384 16.7293 0.930236 16.812 0.983174C16.8946 1.03611 16.9752 1.09117 17.0535 1.14836C17.1318 1.20554 17.208 1.26482 17.282 1.32624C17.3561 1.38767 17.4279 1.45122 17.4975 1.51688C17.5672 1.58254 17.6347 1.65032 17.7001 1.72022C17.7654 1.79012 17.8286 1.86213 17.8896 1.93626C17.9506 2.01039 18.0094 2.08665 18.0661 2.16501C18.1227 2.24336 18.1772 2.32382 18.2295 2.4064C18.2819 2.48899 18.332 2.5737 18.38 2.6605C18.4279 2.74731 18.4737 2.83623 18.5174 2.92725C18.561 3.01828 18.6024 3.11137 18.6417 3.20661C18.681 3.30184 18.7181 3.39921 18.753 3.49866C18.7879 3.59811 18.8207 3.69966 18.8512 3.80332C18.8818 3.90697 18.9102 4.01276 18.9364 4.12062C18.9626 4.22849 18.9866 4.33842 19.0085 4.45048C19.028 4.5505 19.0463 4.69843 19.0632 4.88621C19.0802 5.07399 19.0958 5.30166 19.1099 5.56111C19.124 5.82056 19.1366 6.11179 19.1475 6.4268C19.1584 6.74181 19.1676 7.08057 19.175 7.43505C19.1897 8.144 19.197 8.91583 19.1956 9.68606C19.1948 10.0712 19.192 10.4559 19.1867 10.8322C19.1815 11.2084 19.1738 11.5763 19.1637 11.9277C19.1532 12.2918 19.1428 12.6177 19.1315 12.9115C19.1202 13.2053 19.1081 13.4669 19.094 13.7026C19.0799 13.9383 19.0638 14.148 19.0448 14.3378C19.0259 14.5276 19.0041 14.6975 18.9782 14.8537C18.9524 15.0098 18.9226 15.1523 18.8879 15.2871C18.8532 15.4219 18.8136 15.5491 18.7679 15.6747C18.7223 15.8004 18.6707 15.9245 18.6121 16.0533C18.5536 16.1821 18.4881 16.3155 18.4145 16.4596C18.3657 16.5554 18.3176 16.6417 18.2656 16.7249C18.2135 16.808 18.1574 16.8881 18.0922 16.9713C18.027 17.0545 17.9527 17.1409 17.8644 17.2369C17.7761 17.3329 17.6738 17.4385 17.5525 17.5599C17.4144 17.6981 17.3029 17.8076 17.2045 17.8983C17.1061 17.9891 17.0208 18.0611 16.9349 18.1244C16.8491 18.1877 16.7627 18.2424 16.6623 18.2983C16.5618 18.3542 16.4473 18.4115 16.3051 18.48C16.2124 18.5247 16.1201 18.5668 16.0277 18.6063C15.9352 18.6457 15.8427 18.6826 15.7496 18.7171C15.6565 18.7516 15.5629 18.7837 15.4683 18.8135C15.3738 18.8432 15.2782 18.8707 15.1813 18.8959C15.0843 18.9211 14.986 18.9441 14.8858 18.965C14.7857 18.9859 14.6837 19.0047 14.5794 19.0216C14.4752 19.0384 14.3686 19.0533 14.2594 19.0663C14.1502 19.0793 14.0383 19.0904 13.9233 19.0997C13.8019 19.1096 13.6186 19.1188 13.3874 19.1273C13.1563 19.1358 12.8774 19.1436 12.565 19.1505C11.9401 19.1643 11.1811 19.1747 10.4019 19.1808C9.6227 19.187 8.82328 19.1888 8.11764 19.1855C7.41199 19.1821 6.80012 19.1735 6.39592 19.1589C6.13419 19.1494 5.89064 19.1376 5.66285 19.1228C5.43507 19.108 5.22299 19.0903 5.02424 19.069C4.82549 19.0477 4.64005 19.0229 4.46543 18.994C4.29081 18.965 4.12705 18.9318 3.97166 18.894C3.81628 18.8562 3.6693 18.8136 3.52823 18.7657C3.38717 18.7177 3.25202 18.6645 3.12038 18.6053C2.98874 18.5461 2.86058 18.4809 2.73346 18.4093C2.60633 18.3376 2.48026 18.2594 2.35275 18.1741C2.21371 18.0811 2.08109 17.9828 1.95485 17.8791C1.82861 17.7755 1.70878 17.6665 1.59522 17.552C1.48165 17.4375 1.37439 17.3176 1.27338 17.1921C1.17238 17.0667 1.07762 16.9357 0.98905 16.799C0.90048 16.6624 0.818118 16.5201 0.741863 16.3721C0.665608 16.2241 0.595479 16.0703 0.531418 15.9108C0.467357 15.7512 0.409349 15.5858 0.357362 15.4144C0.305374 15.2431 0.259375 15.0659 0.21934 14.8827C0.200093 14.7946 0.18224 14.6929 0.165718 14.5766C0.149196 14.4604 0.13402 14.3295 0.120131 14.1828C0.106242 14.0362 0.0936251 13.8738 0.0822777 13.6946C0.0709303 13.5153 0.0608511 13.3192 0.0519541 13.1052C0.0341602 12.6772 0.0211754 12.1775 0.0126347 11.5972C0.00409411 11.0169 1.8112e-05 10.3561 0 9.60595C0 9.10644 0.00128345 8.65181 0.00434639 8.23662C0.00740934 7.82142 0.0122476 7.44564 0.0192049 7.10377C0.0261619 6.7619 0.0352682 6.45395 0.0469507 6.17442C0.0586335 5.89488 0.072872 5.64375 0.0901111 5.41556C0.107351 5.18738 0.127586 4.98213 0.151213 4.79431C0.17484 4.60649 0.201836 4.4361 0.232682 4.27766C0.263528 4.11922 0.298199 3.97272 0.337096 3.83267C0.375992 3.69262 0.419153 3.55904 0.466931 3.42639C0.532081 3.24552 0.597425 3.08339 0.667419 2.93292C0.702416 2.85769 0.738556 2.78537 0.776432 2.71506C0.814308 2.64475 0.853887 2.57646 0.895755 2.50929C0.937622 2.44212 0.981802 2.37606 1.02877 2.31025C1.07574 2.24444 1.12554 2.17887 1.17872 2.11263C1.2851 1.98014 1.405 1.84503 1.54291 1.70013C1.65329 1.58415 1.75835 1.48038 1.86176 1.38606C1.96517 1.29174 2.06694 1.20685 2.17091 1.12852C2.27487 1.05019 2.381 0.97846 2.49304 0.910451C2.60509 0.842443 2.72306 0.778159 2.85071 0.714804C3.0166 0.632463 3.17772 0.558922 3.34291 0.493397C3.4255 0.460634 3.5091 0.429906 3.59484 0.401038C3.68059 0.372172 3.76845 0.345193 3.85957 0.320016C3.95068 0.29484 4.04504 0.271465 4.14375 0.249773C4.24246 0.228082 4.34554 0.208064 4.45406 0.189652C4.56258 0.17124 4.67657 0.154433 4.79712 0.139095C4.91767 0.123757 5.04479 0.109864 5.1796 0.0973947C5.44921 0.0724572 5.74956 0.0530802 6.0895 0.0383867C6.42945 0.0236931 6.80896 0.0137101 7.23699 0.00761744C7.66503 0.00152552 8.14155 -0.000687276 8.67544 0.000178151ZM14.7971 3.30246C14.7696 3.30048 14.742 3.29948 14.7144 3.29947C14.6754 3.29948 14.6365 3.30146 14.5977 3.30539C14.5589 3.30932 14.5204 3.31519 14.4822 3.323C14.444 3.33079 14.4062 3.34051 14.369 3.3521C14.3317 3.36371 14.2951 3.37719 14.2592 3.39249C14.2233 3.40779 14.1882 3.4249 14.154 3.44375C14.1198 3.46258 14.0865 3.48312 14.0544 3.50529C14.0222 3.52748 13.9911 3.55128 13.9613 3.57659C13.9315 3.6019 13.903 3.62868 13.8759 3.65686C13.8487 3.68505 13.823 3.71459 13.7987 3.74537C13.7745 3.77614 13.7518 3.80811 13.7308 3.84117C13.7097 3.87421 13.6903 3.9083 13.6726 3.9433C13.655 3.97832 13.639 4.01421 13.6249 4.05084C13.6108 4.08744 13.5985 4.12473 13.588 4.16258C13.5776 4.20043 13.5691 4.23879 13.5625 4.27751C13.5558 4.31621 13.5511 4.35523 13.5484 4.39441C13.5464 4.42215 13.5454 4.44995 13.5454 4.47776C13.5454 4.51705 13.5474 4.55632 13.5513 4.59542C13.5552 4.63451 13.561 4.67337 13.5687 4.71187C13.5765 4.75037 13.5861 4.78846 13.5976 4.82599C13.6092 4.86351 13.6225 4.90044 13.6377 4.93661C13.6529 4.97281 13.6699 5.00821 13.6886 5.04269C13.7072 5.07716 13.7276 5.11067 13.7496 5.14309C13.7716 5.1755 13.7952 5.20678 13.8203 5.23682C13.8454 5.26687 13.872 5.29563 13.9 5.323C13.9279 5.35037 13.9572 5.37631 13.9878 5.40073C14.0183 5.42516 14.05 5.44803 14.0828 5.46926C14.1156 5.49048 14.1495 5.51004 14.1842 5.52786C14.2189 5.54568 14.2545 5.56175 14.2908 5.57599C14.3272 5.59023 14.3642 5.60262 14.4017 5.61313C14.4393 5.62363 14.4773 5.63223 14.5157 5.63889C14.5541 5.64558 14.5928 5.65032 14.6317 5.65311C14.6592 5.65507 14.6868 5.65605 14.7144 5.65605C14.7534 5.65605 14.7923 5.65409 14.8311 5.65018C14.8699 5.64625 14.9084 5.64037 14.9466 5.63257C14.9848 5.62476 15.0226 5.61503 15.0598 5.60342C15.0971 5.59181 15.1337 5.57833 15.1696 5.56303C15.2055 5.54774 15.2406 5.53065 15.2748 5.51182C15.309 5.49297 15.3423 5.47242 15.3744 5.45023C15.4066 5.42806 15.4377 5.40427 15.4675 5.37897C15.4973 5.35365 15.5258 5.32685 15.5529 5.29866C15.5801 5.27049 15.6058 5.24096 15.6301 5.2102C15.6543 5.17943 15.677 5.14745 15.698 5.1144C15.7191 5.08134 15.7385 5.04724 15.7562 5.01222C15.7739 4.97722 15.7898 4.94134 15.8039 4.90473C15.818 4.86811 15.8303 4.8308 15.8408 4.79294C15.8512 4.75508 15.8597 4.71673 15.8663 4.67801C15.873 4.63931 15.8777 4.60029 15.8804 4.56111C15.8824 4.53337 15.8834 4.50557 15.8834 4.47776C15.8834 4.43848 15.8814 4.39923 15.8775 4.36015C15.8736 4.32106 15.8678 4.2822 15.8601 4.2437C15.8523 4.2052 15.8427 4.16711 15.8312 4.12958C15.8196 4.09205 15.8063 4.05513 15.7911 4.01895C15.7759 3.98276 15.7589 3.94736 15.7402 3.91288C15.7216 3.87841 15.7012 3.8449 15.6792 3.81248C15.6572 3.78005 15.6336 3.74875 15.6084 3.7187C15.5833 3.68865 15.5568 3.65989 15.5288 3.63252C15.5009 3.60515 15.4716 3.5792 15.4411 3.55478C15.4105 3.53038 15.3788 3.50752 15.346 3.48631C15.3132 3.46509 15.2794 3.44553 15.2446 3.42771C15.2099 3.40988 15.1743 3.39382 15.138 3.37958C15.1016 3.36534 15.0646 3.35295 15.0271 3.34243C14.9895 3.33192 14.9515 3.32331 14.9131 3.31663C14.8747 3.30996 14.836 3.30523 14.7971 3.30246ZM9.60637 4.69643C9.77519 4.69643 9.94205 4.7051 10.1066 4.72194C10.2712 4.73878 10.4333 4.7638 10.5928 4.79664C10.7522 4.82947 10.909 4.87009 11.0624 4.91809C11.2159 4.96609 11.3662 5.02146 11.513 5.08378C11.6597 5.1461 11.8027 5.21536 11.9418 5.29117C12.0809 5.36698 12.216 5.44932 12.3466 5.53778C12.4773 5.62624 12.6034 5.72086 12.7248 5.82113C12.8461 5.9214 12.9626 6.02735 13.0738 6.13859C13.185 6.24983 13.291 6.36635 13.3912 6.48773C13.4914 6.60911 13.5859 6.73534 13.6744 6.86602C13.7628 6.9967 13.8451 7.13184 13.9209 7.27098C13.9967 7.41012 14.0659 7.55326 14.1282 7.70003C14.1905 7.84679 14.2459 7.99718 14.2939 8.15073C14.3418 8.30429 14.3824 8.46102 14.4153 8.62052C14.4481 8.78002 14.4731 8.94225 14.49 9.10686C14.5068 9.27147 14.5154 9.43843 14.5154 9.60731C14.5154 9.7762 14.5068 9.94316 14.49 10.1078C14.4731 10.2724 14.4481 10.4347 14.4153 10.5942C14.3824 10.7537 14.3418 10.9104 14.2939 11.0639C14.2459 11.2175 14.1905 11.3679 14.1282 11.5147C14.0659 11.6614 13.9967 11.8046 13.9209 11.9437C13.8451 12.0828 13.7628 12.2179 13.6744 12.3486C13.5859 12.4793 13.4914 12.6056 13.3912 12.7269C13.291 12.8483 13.185 12.9648 13.0738 13.0761C12.9626 13.1873 12.8461 13.2933 12.7248 13.3935C12.6034 13.4938 12.4773 13.5884 12.3466 13.6768C12.216 13.7653 12.0809 13.8476 11.9418 13.9235C11.8027 13.9993 11.6597 14.0685 11.513 14.1308C11.3662 14.1932 11.2159 14.2485 11.0624 14.2965C10.909 14.3445 10.7522 14.3852 10.5928 14.418C10.4333 14.4508 10.2712 14.4759 10.1066 14.4927C9.94205 14.5096 9.77519 14.5182 9.60637 14.5182C9.43755 14.5182 9.27063 14.5096 9.10608 14.4927C8.94153 14.4759 8.77934 14.4508 8.61989 14.418C8.46045 14.3852 8.30378 14.3445 8.15029 14.2965C7.99679 14.2485 7.84649 14.1932 7.69978 14.1308C7.55307 14.0685 7.40994 13.9993 7.27086 13.9235C7.13177 13.8476 6.99672 13.7653 6.86609 13.6768C6.73546 13.5884 6.60924 13.4938 6.4879 13.3935C6.36657 13.2933 6.25013 13.1873 6.13893 13.0761C6.02773 12.9648 5.92178 12.8483 5.82155 12.7269C5.72131 12.6056 5.6268 12.4793 5.53838 12.3486C5.44995 12.2179 5.36763 12.0828 5.29185 11.9437C5.21607 11.8046 5.14683 11.6614 5.08453 11.5147C5.02224 11.3679 4.96685 11.2175 4.91887 11.0639C4.87089 10.9104 4.8303 10.7537 4.79747 10.5942C4.76465 10.4347 4.73961 10.2724 4.72278 10.1078C4.70595 9.94316 4.69735 9.7762 4.69735 9.60731C4.69735 9.43843 4.70595 9.27147 4.72278 9.10686C4.73961 8.94225 4.76465 8.78002 4.79747 8.62052C4.8303 8.46102 4.87089 8.30429 4.91887 8.15073C4.96685 7.99718 5.02224 7.84679 5.08453 7.70003C5.14683 7.55326 5.21607 7.41012 5.29185 7.27098C5.36763 7.13184 5.44995 6.9967 5.53838 6.86602C5.6268 6.73534 5.72131 6.60911 5.82155 6.48773C5.92178 6.36635 6.02773 6.24983 6.13893 6.13859C6.25013 6.02735 6.36657 5.9214 6.4879 5.82113C6.60924 5.72086 6.73546 5.62624 6.86609 5.53778C6.99672 5.44932 7.13177 5.36698 7.27086 5.29117C7.40994 5.21536 7.55307 5.1461 7.69978 5.08378C7.84649 5.02146 7.99679 4.96609 8.15029 4.91809C8.30378 4.87009 8.46045 4.82947 8.61989 4.79664C8.77934 4.7638 8.94153 4.73878 9.10608 4.72194C9.27063 4.7051 9.43755 4.69643 9.60637 4.69643ZM9.60637 6.39147C9.49478 6.39147 9.38454 6.39706 9.27599 6.40797C9.16745 6.41888 9.0606 6.43511 8.95563 6.4564C8.85065 6.47769 8.74756 6.50405 8.64668 6.5352C8.5458 6.56635 8.44709 6.6023 8.35083 6.64279C8.25456 6.68328 8.16075 6.72831 8.06963 6.77761C7.9785 6.8269 7.89006 6.88045 7.8046 6.93803C7.71914 6.99562 7.63663 7.05725 7.55736 7.1226C7.47809 7.18795 7.40204 7.25704 7.32948 7.32963C7.25692 7.40222 7.18785 7.47826 7.12252 7.55757C7.0572 7.63687 6.99562 7.71939 6.93806 7.80488C6.88049 7.89038 6.82692 7.97886 6.77764 8.07002C6.72836 8.16118 6.68338 8.25504 6.64291 8.35134C6.60244 8.44764 6.5665 8.54637 6.53536 8.64729C6.50422 8.74821 6.47785 8.85134 6.45657 8.95635C6.43529 9.06137 6.41906 9.16831 6.40815 9.2769C6.39725 9.38548 6.39168 9.49568 6.39168 9.60731C6.39168 9.71895 6.39725 9.82919 6.40815 9.93778C6.41906 10.0464 6.43529 10.1533 6.45657 10.2583C6.47785 10.3633 6.50422 10.4665 6.53536 10.5674C6.5665 10.6683 6.60244 10.767 6.64291 10.8633C6.68338 10.9596 6.72836 11.0535 6.77764 11.1447C6.82692 11.2358 6.88049 11.3242 6.93806 11.4097C6.99562 11.4952 7.0572 11.5778 7.12252 11.6571C7.18785 11.7364 7.25692 11.8125 7.32948 11.885C7.40204 11.9576 7.47809 12.0267 7.55736 12.0921C7.63663 12.1574 7.71914 12.2191 7.8046 12.2766C7.89006 12.3342 7.9785 12.3878 8.06963 12.4371C8.16075 12.4864 8.25456 12.5314 8.35083 12.5719C8.44709 12.6124 8.5458 12.6483 8.64668 12.6795C8.74756 12.7106 8.85065 12.737 8.95563 12.7583C9.0606 12.7796 9.16745 12.7958 9.27599 12.8067C9.38454 12.8176 9.49478 12.8232 9.60637 12.8232C9.71796 12.8232 9.82815 12.8176 9.93669 12.8067C10.0452 12.7958 10.1521 12.7796 10.2571 12.7583C10.3621 12.737 10.4651 12.7106 10.566 12.6795C10.6669 12.6483 10.7656 12.6124 10.8619 12.5719C10.9581 12.5314 11.052 12.4864 11.1431 12.4371C11.2342 12.3878 11.3227 12.3342 11.4081 12.2766C11.4936 12.2191 11.5761 12.1574 11.6554 12.0921C11.7346 12.0267 11.8107 11.9576 11.8833 11.885C11.9558 11.8125 12.0249 11.7364 12.0902 11.6571C12.1555 11.5778 12.2171 11.4952 12.2747 11.4097C12.3322 11.3242 12.3858 11.2358 12.4351 11.1447C12.4844 11.0535 12.5294 10.9596 12.5698 10.8633C12.6103 10.767 12.6462 10.6683 12.6774 10.5674C12.7085 10.4665 12.7349 10.3633 12.7562 10.2583C12.7774 10.1533 12.7937 10.0464 12.8046 9.93778C12.8155 9.82919 12.8211 9.71895 12.8211 9.60731C12.8211 9.49568 12.8155 9.38548 12.8046 9.2769C12.7937 9.16831 12.7774 9.06137 12.7562 8.95635C12.7349 8.85134 12.7085 8.74821 12.6774 8.64729C12.6462 8.54637 12.6103 8.44764 12.5698 8.35134C12.5294 8.25504 12.4844 8.16118 12.4351 8.07002C12.3858 7.97886 12.3322 7.89038 12.2747 7.80488C12.2171 7.71939 12.1555 7.63687 12.0902 7.55757C12.0249 7.47826 11.9558 7.40222 11.8833 7.32963C11.8107 7.25704 11.7346 7.18795 11.6554 7.1226C11.5761 7.05725 11.4936 6.99562 11.4081 6.93803C11.3227 6.88045 11.2342 6.8269 11.1431 6.77761C11.052 6.72831 10.9581 6.68328 10.8619 6.64279C10.7656 6.6023 10.6669 6.56635 10.566 6.5352C10.4651 6.50405 10.3621 6.47769 10.2571 6.4564C10.1521 6.43511 10.0452 6.41888 9.93669 6.40797C9.82815 6.39706 9.71796 6.39147 9.60637 6.39147ZM7.03454 1.70939C7.77671 1.69913 8.68866 1.69389 9.60126 1.6937C10.5139 1.69352 11.4271 1.69838 12.172 1.70833C12.5444 1.7133 12.8747 1.71953 13.1418 1.72705C13.4088 1.73457 13.6126 1.74339 13.7321 1.75347C13.8877 1.76659 14.0359 1.78294 14.1776 1.80276C14.3193 1.82258 14.4544 1.84586 14.5835 1.8729C14.7126 1.89994 14.8358 1.93072 14.9537 1.96551C15.0716 2.00031 15.1842 2.03913 15.2922 2.08221C15.4002 2.12529 15.5036 2.17262 15.603 2.22452C15.7025 2.27642 15.798 2.3329 15.8902 2.39416C15.9824 2.45541 16.0714 2.52145 16.1577 2.59259C16.244 2.66372 16.3277 2.73993 16.4095 2.82148C16.4957 2.9075 16.5753 2.99505 16.6488 3.08555C16.7222 3.17606 16.7896 3.26956 16.8513 3.36754C16.913 3.46551 16.969 3.56792 17.0199 3.67634C17.0708 3.78476 17.1166 3.89918 17.1577 4.02103C17.1989 4.14287 17.2354 4.27215 17.2677 4.4104C17.3001 4.54865 17.3284 4.69583 17.353 4.85347C17.3776 5.0111 17.3986 5.17918 17.4165 5.35919C17.4343 5.53919 17.4491 5.73112 17.4613 5.93646C17.471 6.1012 17.4794 6.31853 17.4867 6.57528C17.4939 6.83203 17.4999 7.12821 17.5047 7.45063C17.5142 8.09547 17.5188 8.84531 17.5184 9.59481C17.5181 10.3443 17.5128 11.0935 17.5027 11.737C17.4977 12.0587 17.4914 12.3541 17.4839 12.6098C17.4765 12.8655 17.4678 13.0817 17.4579 13.2451C17.4399 13.5423 17.4211 13.7922 17.3984 14.0097C17.387 14.1184 17.3747 14.2191 17.361 14.3135C17.3474 14.4079 17.3323 14.4961 17.3156 14.5799C17.2989 14.6637 17.2805 14.7431 17.26 14.8201C17.2394 14.897 17.2168 14.9715 17.1918 15.0453C17.1667 15.1191 17.1392 15.1922 17.1088 15.2667C17.0785 15.3411 17.0453 15.4168 17.0089 15.4956C16.9778 15.563 16.9449 15.6286 16.9103 15.6924C16.8756 15.7562 16.8392 15.8182 16.8011 15.8784C16.7629 15.9386 16.7229 15.997 16.6812 16.0536C16.6394 16.1102 16.5959 16.1651 16.5504 16.2181C16.505 16.2712 16.4577 16.3225 16.4086 16.3721C16.3594 16.4217 16.3084 16.4695 16.2555 16.5157C16.2026 16.5618 16.1478 16.6062 16.091 16.6489C16.0342 16.6916 15.9755 16.7326 15.9148 16.7719C15.8541 16.8113 15.7915 16.8489 15.7269 16.8849C15.6623 16.9209 15.5956 16.9552 15.527 16.9879C15.4583 17.0206 15.3876 17.0517 15.3149 17.0812C15.2421 17.1106 15.1673 17.1384 15.0904 17.1646C14.9366 17.217 14.7745 17.2631 14.6038 17.3029C14.433 17.3427 14.2537 17.3762 14.0655 17.4037C13.9961 17.4139 13.8363 17.4234 13.6076 17.4323C13.3789 17.4411 13.0811 17.4493 12.7358 17.4566C12.0453 17.4711 11.1644 17.4823 10.2643 17.4887C9.36417 17.4951 8.44484 17.4969 7.67739 17.4927C7.29367 17.4907 6.9479 17.4871 6.66151 17.4819C6.37511 17.4767 6.14811 17.4699 6.00182 17.4613C5.82807 17.4511 5.66645 17.4398 5.51543 17.4271C5.36441 17.4144 5.22396 17.4002 5.09242 17.3841C4.96088 17.3681 4.83828 17.3502 4.72298 17.33C4.60768 17.3098 4.49967 17.2874 4.39736 17.2623C4.29504 17.2372 4.19842 17.2095 4.10585 17.1787C4.01328 17.1479 3.92477 17.114 3.8387 17.0767C3.75262 17.0394 3.66898 16.9987 3.58615 16.9541C3.50332 16.9095 3.42129 16.861 3.33846 16.8083C3.2759 16.7685 3.21553 16.7277 3.15728 16.6856C3.09902 16.6436 3.0429 16.6004 2.98883 16.5558C2.93476 16.5112 2.88273 16.4653 2.83272 16.418C2.7827 16.3707 2.73467 16.3219 2.68858 16.2715C2.64249 16.2212 2.59836 16.1693 2.55606 16.1156C2.51377 16.062 2.47334 16.0066 2.43472 15.9494C2.3961 15.8922 2.35927 15.8331 2.32419 15.772C2.28911 15.711 2.25579 15.648 2.22412 15.5829C2.19246 15.5178 2.16244 15.4506 2.13406 15.3811C2.10569 15.3116 2.07897 15.24 2.05376 15.1659C2.00333 15.0178 1.95908 14.8602 1.92054 14.6921C1.88199 14.524 1.84912 14.3453 1.82143 14.1551C1.79374 13.9649 1.77125 13.7631 1.7534 13.5487C1.74025 13.3907 1.72979 13.1446 1.72182 12.8337C1.71384 12.5228 1.70834 12.1471 1.70509 11.7299C1.69858 10.8956 1.70104 9.89542 1.71065 8.91607C1.72026 7.93672 1.737 6.97821 1.75906 6.2273C1.7701 5.85185 1.7825 5.52831 1.79596 5.27999C1.80269 5.15583 1.80968 5.0505 1.81693 4.96688C1.82418 4.88325 1.83166 4.82134 1.83937 4.78408C1.86472 4.6617 1.89024 4.54787 1.91659 4.44127C1.94294 4.33467 1.97015 4.23529 1.99882 4.14183C2.02749 4.04836 2.05764 3.96079 2.08994 3.87781C2.12224 3.79482 2.15671 3.71643 2.19395 3.64127C2.2312 3.56612 2.27123 3.49419 2.31474 3.42422C2.35825 3.35424 2.40522 3.2862 2.4563 3.21875C2.50738 3.1513 2.56255 3.08445 2.62252 3.01688C2.68249 2.9493 2.74723 2.881 2.8174 2.81065C2.90259 2.72525 2.98728 2.64653 3.07283 2.57391C3.15837 2.5013 3.24482 2.43481 3.33356 2.37386C3.4223 2.31291 3.51331 2.25752 3.60809 2.20711C3.70286 2.1567 3.80136 2.11126 3.905 2.07027C4.00865 2.02928 4.11745 1.99273 4.2328 1.96005C4.34815 1.92736 4.47002 1.89856 4.59992 1.87305C4.72981 1.84754 4.86771 1.8253 5.01499 1.80585C5.16227 1.78639 5.31897 1.76971 5.48647 1.75519C5.60324 1.74506 5.80468 1.73615 6.06974 1.72852C6.33481 1.72089 6.66345 1.71452 7.03454 1.70939Z" fill="#0D0F20"/>
</svg>
