<svg width="23" height="15" viewBox="0 0 23 15" fill="none" xmlns="http://www.w3.org/2000/svg">
<path d="M19.5567 6.36296C20.7976 6.26699 21.6334 5.73914 21.9616 5.02414C21.5155 5.28326 20.1259 5.56159 19.3619 5.29286C19.326 5.12491 19.2849 4.96655 19.2388 4.81779C18.6542 2.81195 16.6545 1.19481 14.5624 1.39155C14.7316 1.32917 14.906 1.26679 15.0752 1.214C15.3059 1.13722 16.6596 0.93088 16.4442 0.484605C16.2648 0.0911153 14.6137 0.782122 14.3009 0.873297C14.7111 0.729337 15.3931 0.479807 15.4649 0.0383301C14.8342 0.119907 14.2189 0.398229 13.742 0.801317C13.9163 0.628565 14.0445 0.417424 14.0753 0.187088C12.3934 1.19961 11.4141 3.21984 10.6193 5.18249C9.99884 4.61625 9.44506 4.17477 8.94768 3.92524C7.5581 3.22944 5.89675 2.50004 3.2868 1.5931C3.20476 2.39927 3.71239 3.47417 5.17376 4.18917C4.85585 4.15078 4.27643 4.23716 3.81494 4.34273C4.00466 5.26887 4.61998 6.03185 6.28645 6.39655C5.52756 6.44454 5.13274 6.60769 4.77381 6.9532C5.12248 7.59622 5.96854 8.3544 7.49144 8.19605C5.79933 8.87746 6.79921 10.1443 8.17854 9.95236C5.83009 12.2221 2.12796 12.0542 0 10.1587C5.5532 17.2415 17.6236 14.3479 19.4234 7.52424C20.772 7.53383 21.5616 7.08756 22.0539 6.5933C21.2796 6.72286 20.1515 6.5981 19.5567 6.36296V6.36296Z" fill="#0D0F20"/>
</svg>
